<svg fill="none" height="1024" viewBox="0 0 1440 1024" width="1440" xmlns="http://www.w3.org/2000/svg" xmlns:xlink="http://www.w3.org/1999/xlink"><clipPath id="a"><path d="m0 0h1440v1024h-1440z"/></clipPath><g clip-path="url(#a)"><path d="m0 0h1440v1024h-1440z" fill="#fff"/><path d="m93.7789 618.418c-164.3173-74.938-226.8469-287.607-249.4099-360.418-44.876 326.162-169.588 921.28 0 1008.2 101.7527 52.16 337.301-79.74 448.555-178.52 194.135-172.373 218.618-289.833 168.783-347.041-62.378-71.607-176.73-35.023-367.9281-122.221z" fill="#d95e32"/><path d="m1474.13 1242.81c63.56 81.7 141.12 68.78 203.69 40.43 117-176.86 87.88-879.331 0-943.257-144.32-104.983-342.82 37.512-504.32 184.017-465.192 422-45.14 341.211 33.98 443.959 68.47 88.921 169.01 149.371 266.65 274.851z" fill="#f2a413" fill-opacity=".8"/><path d="m902.836-4.46103c22.368-128.74997 119.964-186.91397 182.704-221.12897 172.36-31.688 279.22-50.976 365.41 0 86.18 50.977 22.75 245.9285-15.86 281.061-38.61 35.1326-90.92 8.3078-151.59 56.529-64.46 51.235-66.28 146-197.96 146-111.691 0-214.418-79.909-182.704-262.46103z" fill="#2c5951" fill-opacity=".8"/><path d="m739.766-37.7564c2.324-284.8206 268.434-511.5596 358.794-590.8496-498.593 144.988-1435.859 347.849-1452.062 647.9655-9.722 180.0695 331.6391 434.5435 545.41 531.2915 373.021 168.822 557.928 128.594 608.294 20.051 63.041-135.861-63.141-277.044-60.436-608.4584z" fill="#d95e32" fill-opacity=".15"/><g fill="#2c5951"><path d="m1031.54 168.263c13.28-116.842 101.14-217.359 160.52-242.0341 157.24-12.0323 254.7-19.1718 326.99 34.6083 72.3 53.7802 130.99 201.4258 34.99 254.4258s-166.14-11.905-225 25.5c-62.54 39.744-76.87 171.365-182.78 118.219-60.22-30.219-124.72-102.719-114.72-190.719z" fill-opacity=".05"/><path d="m60.3182 762.628c-152.3166 138.583-117.1849 292.032-79.3167 452.872 76.0277 243.34 107.9271 391.46 248.5715 462.98 140.645 71.52 269.749-92.97 255.692-193.43-11.398-81.47-27.167-197.13-14.325-318.58 13.645-129.04 204.186-207.606 92.869-382.732-94.415-148.537-287.525-217.604-503.4908-21.11z" fill-opacity=".05"/><path d="m810.878 638.293c-69.807 116.304-59.873 269.977-22.807 334.23 135.541 121.327 219.769 196.227 323.699 197.697 103.92 1.47 261.24-92.55 210.51-208.423-50.72-115.875-160.48-105.648-188.13-181.19-29.39-80.264 11.62-249.388-122.64-275.022-76.342-14.575-148.056 45.114-200.632 132.708z" fill-opacity=".03"/><path d="m122.084-202.258c-103.1949 171.9288-88.5097 399.101-33.7152 494.085 200.3682 179.353 324.8822 290.083 478.5102 292.256 153.628 2.172 386.189-136.816 311.205-308.113-74.984-171.296-237.235-156.176-278.118-267.84896-43.438-118.65304 17.184-368.66504-181.295-406.55904-112.851-21.547-218.865 66.691-296.587 196.18z" fill-opacity=".02"/></g></g></svg>